<?xml version="1.0" encoding="UTF-8"?>
<svg id="Layer_1" xmlns="http://www.w3.org/2000/svg" version="1.1" viewBox="0 0 512 512">
  <path fill="#ffffff" d="M416,0c22.05,4.27,42.93,12.26,60.08,27.91,17.47,15.93,28.81,35.95,33.44,59.21.81,4.09,2.3,7.52,1.36,12.03-.23,1.08.22,2.79,1.12,2.85v311c-3.51,22.12-11,43.19-26.52,60.56-17.86,20-41.31,32.68-68.04,36.82-6.05.94-14.13,1.78-20.06-.25-10.73-3.67-19.81-10.07-28.79-17.02-46.83-36.23-89.3-99.35-87.03-161.5-9.47-6.68-17.9-14.25-23.22-24.8-11.8-23.41-8.52-51.6,8.07-72.05.02,12.73.45,23.94,3.97,35.6,6.96,23.07,23.85,41.91,46.64,49.81,23.09,8.01,41.04,3.54,61.01,23.71,6.25,6.31,9.26,13.84,13.38,21.64,5.51,10.44,16.74,17.07,28.48,18.06,14.69,1.25,28.57-4.31,37.43-15.39s13.52-28.06,6.35-40.71l-49.81-87.9c.06-35.42-23.26-68.63-53.61-86.11,13.66-24.52,24.91-63.15,19.74-92.14-29.37,8.49-54.79,25-74.86,47.74-8.15,9.23-13.95,19.2-20.21,29.71-61.64,7.75-115.34,43.2-144.28,97.96-20.48,38.74-28.8,82.03-18.85,125.27,13.48,58.6,50.41,110.85,103.7,139.67,6.07,3.28,11.95,5.49,17.24,8.84-5.36-.71-8.57.63-12.86.61l-133.41-.79c-14.06-.08-27.5-6.37-39.41-12.5C25.03,481.39,5.9,451.22,0,417V96C8.04,44.24,45.27,7.76,97,0h319ZM273.51,122.16c5.23-7.23,11.1-12.57,17.14-19.04-63.71-26.81-144.53-7.69-185.15,46.92,12.07-5.6,21.11-11.54,32.51-15.85,43.65-16.48,89.6-22.65,135.51-12.03ZM68.33,254.59c9.51-14.34,19.88-26.59,31.94-38.34,33.83-34.88,74.24-58.99,121.39-75.26-30.99-1.27-59.67,7.91-86.44,19.79-19.26,9.28-35.6,20.83-50.28,36.32-25,27.11-39.93,62.45-38.95,100.52,6.52-15.32,12.98-29.14,22.34-43.02ZM109.13,428.21c-3.83-12.9-10.02-22.31-12.81-34.14-17.98-56.04-8.64-105.22,19.11-156.8-22.63,19.88-37.17,46.06-43.69,74.72-9.42,41.39,4.02,88.98,37.39,116.23Z"/>
</svg>
